<?xml version="1.0" encoding="UTF-8" standalone="no"?><!DOCTYPE svg PUBLIC "-//W3C//DTD SVG 1.1//EN" "http://www.w3.org/Graphics/SVG/1.1/DTD/svg11.dtd"><svg width="100%" height="100%" viewBox="0 0 145 144" version="1.1" xmlns="http://www.w3.org/2000/svg" xmlns:xlink="http://www.w3.org/1999/xlink" xml:space="preserve" style="fill-rule:evenodd;clip-rule:evenodd;stroke-linejoin:round;stroke-miterlimit:1.41421;"><g><path d="M133.343,0l-122.715,0c-5.864,0 -10.628,4.648 -10.628,10.379l0,123.23c0,5.736 4.764,10.391 10.628,10.391l122.715,0c5.874,0 10.659,-4.655 10.659,-10.391l0,-123.23c0,-5.731 -4.785,-10.379 -10.659,-10.379Z" style="fill:#006a99;fill-rule:nonzero;"/><path d="M32.034,19.826c6.828,0 12.377,5.549 12.377,12.379c0,6.837 -5.549,12.387 -12.377,12.387c-6.846,0 -12.387,-5.55 -12.387,-12.387c0,-6.83 5.541,-12.379 12.387,-12.379Zm-10.685,34.161l21.36,0l0,68.72l-21.36,0l0,-68.72Z" style="fill:#fff;fill-rule:nonzero;"/><path d="M56.104,53.987l20.488,0l0,9.389l0.285,0c2.849,-5.403 9.817,-11.1 20.208,-11.1c21.628,0 25.621,14.234 25.621,32.736l0,37.695l-21.344,0l0,-33.418c0,-7.973 -0.146,-18.224 -11.099,-18.224c-11.114,0 -12.816,8.683 -12.816,17.646l0,33.996l-21.343,0l0,-68.72Z" style="fill:#fff;fill-rule:nonzero;"/></g></svg>