<?xml version="1.0" encoding="UTF-8" standalone="no"?><!DOCTYPE svg PUBLIC "-//W3C//DTD SVG 1.1//EN" "http://www.w3.org/Graphics/SVG/1.1/DTD/svg11.dtd"><svg width="100%" height="100%" viewBox="0 0 512 512" version="1.1" xmlns="http://www.w3.org/2000/svg" xmlns:xlink="http://www.w3.org/1999/xlink" xml:space="preserve" style="fill-rule:evenodd;clip-rule:evenodd;stroke-linejoin:round;stroke-miterlimit:1.41421;"><path d="M225.7,1.5c-50.4,6.3 -96.9,26.6 -135.2,58.8c-40.7,34.3 -70.7,82.7 -83.4,135c-5.5,22.3 -6.6,32.6 -6.6,60.7c0,28.2 1.1,38.4 6.7,61c8.9,36.2 26.3,71.3 49.8,100.5c8.4,10.4 27.4,29.4 37.5,37.5c13.8,11.2 32.4,22.9 49,31.1c15.9,7.8 20.3,9.3 19.2,6.5c-1.6,-4.1 -2.8,-38.8 -1.8,-51c1.2,-14.5 1.2,-14.1 19.4,-91.5l13.4,-56.4l-2.4,-6.4c-5.5,-15.3 -6.7,-38.1 -2.8,-52.8c4.4,-16.4 15,-30.7 27.3,-36.7c8.3,-4.1 19.9,-5.1 28.1,-2.3c10.5,3.5 17.9,13.4 20.1,27c1.8,11.5 -0.4,23.4 -10.4,56.7c-10.8,35.8 -11,36.7 -11,45.3c0,6.9 0.5,9 3.1,14.7c3.9,8.3 9.2,13.6 17.9,17.9c6.6,3.3 7.3,3.4 18.4,3.4c9.3,0 12.8,-0.4 18.5,-2.3c30.3,-10.1 51.9,-41 59,-84.7c7.2,-43.6 -2.1,-79.4 -26.9,-104c-12.9,-12.8 -27.9,-21.1 -47.5,-26.2c-11.8,-3.1 -34.7,-4.2 -48.4,-2.4c-30.1,4 -57.5,19.5 -74.4,41.9c-15.2,20.2 -22.7,42.5 -22.6,67.7c0,21.5 5.3,39.3 16.4,55.7c2.2,3.2 3.9,6.9 3.9,8.3c0,2.8 -6.4,29.6 -8,33.2c-1.3,3.1 -4.1,2.9 -11.1,-0.8c-12.5,-6.7 -25.8,-21.9 -34.2,-39.1c-9.6,-19.9 -13.7,-37.4 -13.7,-59.1c0,-31.2 8.2,-58.9 25,-84.7c7.7,-11.8 27.9,-32.2 39.5,-39.8c45.9,-30.4 112.5,-37.9 164.2,-18.6c22.6,8.4 38.7,18.7 55.4,35.4c20.8,20.7 32.8,42.7 39.4,72c2.6,11.6 3.2,42.5 1.1,57c-11,75.5 -60.3,127.9 -123.8,131.7c-16.7,1 -32.3,-2.4 -45.5,-9.9c-6.2,-3.4 -15.8,-12 -18.4,-16.2c-1.3,-2.1 -2,-2.6 -2.3,-1.5c-0.3,0.8 -4.4,16.1 -9,34c-4.7,17.9 -10.1,36.4 -12,41.1c-4.1,10.1 -15.7,33.3 -21.9,43.8c-3,5 -4.1,7.7 -3.3,8.1c2.3,1.4 26.5,6.9 37.6,8.6c16.3,2.5 57.7,2.5 74,0c54,-8.4 102.3,-32.2 141.4,-69.7c33.5,-32.1 59.3,-77.1 70.5,-123.3c5.5,-22.3 6.6,-32.6 6.6,-60.7c0,-28.1 -1.1,-38.4 -6.6,-60.7c-4.5,-18.5 -10.2,-34.1 -18.8,-51.8c-25.3,-51.7 -66,-92.3 -117.6,-117.6c-23.9,-11.6 -48.2,-19.3 -74.5,-23.4c-14.4,-2.3 -53.8,-2.9 -68.3,-1Z" style="fill:#bd081c;fill-rule:nonzero;"/></svg>