<?xml version="1.0" encoding="UTF-8" standalone="no"?><!DOCTYPE svg PUBLIC "-//W3C//DTD SVG 1.1//EN" "http://www.w3.org/Graphics/SVG/1.1/DTD/svg11.dtd"><svg width="100%" height="100%" viewBox="0 0 90 90" version="1.1" xmlns="http://www.w3.org/2000/svg" xmlns:xlink="http://www.w3.org/1999/xlink" xml:space="preserve" style="fill-rule:evenodd;clip-rule:evenodd;stroke-linejoin:round;stroke-miterlimit:1.41421;"><g id="Layer1"><rect x="-2.88" y="-1.2" width="92.88" height="93.6" style="fill:#fff;"/></g><g><path d="M29.398,43.354l10.45,5.096c2.01,0.98 1.699,3.936 -0.471,4.477l-11.279,2.813c-1.407,0.35 -2.797,-0.62 -2.963,-2.061c-0.355,-3.081 -0.004,-6.124 0.943,-8.941c0.46,-1.368 2.023,-2.017 3.32,-1.384Z" style="fill:#cf4a3a;"/><path d="M33.582,64.865l7.777,-8.639c1.497,-1.662 4.252,-0.549 4.174,1.686l-0.405,11.622c-0.051,1.448 -1.366,2.52 -2.795,2.28c-3.005,-0.505 -5.847,-1.666 -8.329,-3.371c-1.193,-0.819 -1.39,-2.503 -0.422,-3.578Z" style="fill:#cf4a3a;"/><path d="M52.022,53.369l11.055,3.593c1.376,0.447 2.047,2.004 1.424,3.31c-1.297,2.716 -3.178,5.144 -5.528,7.083c-1.117,0.923 -2.792,0.652 -3.56,-0.577l-6.162,-9.862c-1.185,-1.896 0.645,-4.238 2.771,-3.547Z" style="fill:#cf4a3a;"/><path d="M63.264,46.317l-11.174,3.204c-2.15,0.616 -3.897,-1.788 -2.646,-3.642l6.501,-9.638c0.807,-1.197 2.485,-1.417 3.568,-0.462c2.228,1.966 4.053,4.426 5.287,7.272c0.576,1.331 -0.142,2.866 -1.536,3.266Z" style="fill:#cf4a3a;"/><path d="M37.153,19.2c-2.011,0.539 -3.93,1.251 -5.745,2.116c-1.259,0.601 -1.734,2.151 -1.037,3.359l10.922,18.918c1.226,2.122 4.47,1.253 4.47,-1.198l0,-21.844c0,-1.395 -1.187,-2.5 -2.578,-2.39c-2.003,0.158 -4.021,0.5 -6.032,1.039Z" style="fill:#cf4a3a;"/></g></svg>