<?xml version="1.0" encoding="UTF-8" standalone="no"?><!DOCTYPE svg PUBLIC "-//W3C//DTD SVG 1.1//EN" "http://www.w3.org/Graphics/SVG/1.1/DTD/svg11.dtd"><svg width="100%" height="100%" viewBox="0 0 1022 1022" version="1.1" xmlns="http://www.w3.org/2000/svg" xmlns:xlink="http://www.w3.org/1999/xlink" xml:space="preserve" style="fill-rule:evenodd;clip-rule:evenodd;stroke-linejoin:round;stroke-miterlimit:1.41421;"><g><path d="M405.225,643.481l276,-143l-276,-144l0,287Z" style="fill:#fff;fill-rule:nonzero;"/><path d="M647.267,518.106l-0.026,-0.017l33.984,-17.608l-33.958,17.625Z" style="fill:#e8e0e0;fill-rule:nonzero;"/><path d="M647.241,518.089l-242.016,-161.608l276,144l-33.984,17.608Z" style="fill:#e7e0e0;fill-rule:nonzero;"/><path d="M405.272,643.481l-0.047,-287l276,144l-275.953,143Zm605.978,-336.719c0,0 -9.98,-70.388 -40.608,-101.385c-38.842,-40.684 -82.38,-40.886 -102.346,-43.267c-142.937,-10.333 -357.35,-10.333 -357.35,-10.333l-0.444,0c0,0 -214.408,0 -357.35,10.333c-19.967,2.381 -63.49,2.583 -102.346,43.267c-30.625,30.997 -40.591,101.385 -40.591,101.385c0,0 -10.215,82.66 -10.215,165.319l0,77.493c0,82.658 10.215,165.317 10.215,165.317c0,0 9.966,70.39 40.591,101.387c38.856,40.684 89.897,39.397 112.63,43.661c81.717,7.836 347.289,10.261 347.289,10.261c0,0 214.634,-0.323 357.571,-10.655c19.966,-2.382 63.504,-2.583 102.346,-43.267c30.628,-30.997 40.608,-101.387 40.608,-101.387c0,0 10.2,-82.659 10.2,-165.317l0,-77.493c0,-82.659 -10.2,-165.319 -10.2,-165.319Z" style="fill:url(#_Linear1);"/></g><defs><linearGradient id="_Linear1" x1="0" y1="0" x2="1" y2="0" gradientUnits="userSpaceOnUse" gradientTransform="matrix(-3.14033e-05,718.423,-718.423,-3.14033e-05,510.724,151.777)"><stop offset="0" style="stop-color:#e52d28;stop-opacity:1"/><stop offset="1" style="stop-color:#bf2026;stop-opacity:1"/></linearGradient></defs></svg>