<?xml version="1.0" encoding="UTF-8" standalone="no"?><!DOCTYPE svg PUBLIC "-//W3C//DTD SVG 1.1//EN" "http://www.w3.org/Graphics/SVG/1.1/DTD/svg11.dtd"><svg width="100%" height="100%" viewBox="0 0 256 256" version="1.1" xmlns="http://www.w3.org/2000/svg" xmlns:xlink="http://www.w3.org/1999/xlink" xml:space="preserve" style="fill-rule:evenodd;clip-rule:evenodd;stroke-linejoin:round;stroke-miterlimit:1.41421;"><path d="M160,194.5c0,8.831 -14.339,16 -32,16c-17.661,0 -32,-7.169 -32,-16c2.667,6.623 16.087,12 32,12c15.913,0 29.333,-5.377 32,-12Z"/><g id="Pin"><path id="Triangle" d="M128,190.5c3.633,0 36,-127.5 36,-127.5l-6.695,0l-12.142,25l-33.66,0l-11.864,-25l-7.639,0c0,0 32.367,127.5 36,127.5Z"/><path id="Circle" d="M128,27c19.869,0 36,16.131 36,36c0,19.869 -16.131,36 -36,36c-19.869,0 -36,-16.131 -36,-36c0,-19.869 16.131,-36 36,-36Zm0,13.076c12.652,0 22.924,10.272 22.924,22.924c0,12.652 -10.272,22.924 -22.924,22.924c-12.652,0 -22.924,-10.272 -22.924,-22.924c0,-12.652 10.272,-22.924 22.924,-22.924Z"/></g></svg>